<svg xmlns="http://www.w3.org/2000/svg" viewBox="0.514 12.2507 12.97 15.94">
	<path d="M 9.3445 14.7907 A 3.0935 3.0935 0 0 1 7.1859 15.9275 A 1.19 1.19 0 0 1 6.969 15.9068 A 1.419 1.419 0 0 1 6.938 15.6176 A 3.4629 3.4629 0 0 1 7.8159 13.4591 A 3.5686 3.5686 0 0 1 10.1604 12.2507 A 1.5353 1.5353 0 0 1 10.1914 12.5707 A 3.5615 3.5615 0 0 1 9.3445 14.7907 Z M 13.0729 17.6825 A 3.7579 3.7579 0 0 0 9.9125 16.1023 C 8.7145 16.1023 7.7333 16.8356 7.1033 16.8356 C 6.4423 16.8356 5.5644 16.1437 4.5109 16.1437 C 2.528 16.1437 0.514 17.7858 0.514 20.8842 A 9.7842 9.7842 0 0 0 2.1768 26.1618 C 2.9721 27.2772 3.664 28.1861 4.6555 28.1861 S 6.0808 27.5354 7.2995 27.5354 C 8.5492 27.5354 8.8281 28.1654 9.9125 28.1654 S 11.7096 27.1843 12.3912 26.2031 A 8.394 8.394 0 0 0 13.486 23.9413 A 3.5132 3.5132 0 0 1 11.3481 20.719 A 3.61 3.61 0 0 1 13.0729 17.6825 Z" fill="black"/>
</svg>